<svg id="logos" xmlns="http://www.w3.org/2000/svg" viewBox="0 0 289.5 66.1"><polygon points="112.8 8.2 104.4 13.6 106.5 16.9 115.2 12.4 112.8 8.2" style="fill:#f58800"/><path d="M23.8,26.4H38.9v6l-2,.3v9.9a32,32,0,0,1-11.5,2.1C14,44.7,8.3,38.8,8.3,28.1,8.3,19,15,11,25.9,11c5.4,0,8.4.5,11,1.4V22.6H29.4L29,19.4a8,8,0,0,0-2.6-.3c-4.3,0-8.3,2.6-8.3,8.6s1.7,8.9,8.3,8.9h1.5V32.9l-4.1-.6Z" style="fill:#fff"/><path d="M56.9,33.8c-4.4,0-5.8.9-5.8,2.7s.9,2.4,3,2.4,4.3-1.4,4.3-5.1Zm1.1-5c0-2.9-1.5-3.8-3.1-3.8a8.4,8.4,0,0,0-3.6.6L51,28.2H46.2V20.9a20.8,20.8,0,0,1,9.3-1.7c6.5,0,10.1,2.2,10.1,9.3,0,4-.2,6.7-.3,10.1l4,.4v5.1l-4.5.3h-6V42.7c0-1.6-.1-1.1.2-2s-2.3,4-6.2,4c-5.5,0-8.2-3.2-8.2-7.1a7.2,7.2,0,0,1,4.9-6.7A20.8,20.8,0,0,1,58,29.4Z" style="fill:#fff"/><polygon points="80 13.8 75.7 13.1 75.7 9.3 80.4 8.8 86.2 8.8 86.2 39.6 90.2 40.2 90.2 44.2 75.7 44.2 75.7 40.2 80 39.6 80 13.8" style="fill:#fff"/><path d="M137.5,39.6a7.5,7.5,0,0,0,4.2,1c4.4,0,6.8-4.2,6.8-8.9S147,24,143.4,24s-5.9,3.2-5.9,8.8Zm-9.3-19.1,4.5-.6h4.6c0,1.8-.3,5-.3,5a8,8,0,0,1,8-5.5c5.2,0,8.9,4.3,8.9,11.5s-4.4,13.8-11.8,13.8a12.7,12.7,0,0,1-4.8-.8V56h-5l.2-31.9-4.2-.3Z" style="fill:#fff"/><path d="M177,33.3c-5.1,0-10.2,1-10.2,4.2s1.6,3.7,3.8,3.7S177,40,177,33.3M164.7,25l-.8-3.6a21.5,21.5,0,0,1,7.9-1.7c6.2,0,9.8,2.1,9.8,8.5,0,2.1-.1,8.3-.1,12.7l4.1.3v2.6l-4.1.4h-4v-1c0-1.4.1-3.6.1-3.6a8.4,8.4,0,0,1-7.8,5.1c-2.7,0-7.6-1-7.3-6.9s6.5-7.6,14.5-7.6V28.7c0-4.5-1.8-5.6-5.6-5.6a14.3,14.3,0,0,0-5.4,1.2l-1.3.7" style="fill:#fff"/><path d="M197.8,28.3a6,6,0,0,0,6.2,5.9c4.1,0,6.7-2.7,6.7-6s-1.8-5.7-6.4-5.7-6.5,2.3-6.5,5.8m4.6,16.4c-.5,0-5.3,1.4-5.3,4.6s5.6,4.2,8,4.2,7.8-.9,7.8-4.8c0-2.1-2-2.7-4.1-3Zm14.8-21.6h-2.1l-3.2-.3a7.5,7.5,0,0,1,2.2,5.8c0,5.4-4.5,8.6-10.1,8.6-1,0-4.3.5-4.3,2.3s1.1,1.5,4.1,2l6.4,1c3.8.6,6.5,2,6.5,5.9,0,5.5-5.8,8-11.8,8s-11.4-1.8-11.4-6.5,2.9-5.3,6-6h0c-1.9-.5-3.7-1.5-3.7-3.8s2.5-3.1,4.4-3.6h0c-1.6-.4-6.1-2-6.1-8.1s4.2-8.7,10-8.7a18.6,18.6,0,0,1,4.2.5h8.9Z" style="fill:#fff"/><path d="M236.1,42.2c5.4,0,8-4.4,8-9.9s-2.6-9.8-8-9.8-8,4.3-8,9.8,2.6,9.9,8,9.9m0-22.3c7.1,0,11.3,4.9,11.3,11.6s-4.2,12.9-11.3,12.9-11.4-4.9-11.4-11.6,4.2-12.9,11.4-12.9" style="fill:#fff"/><path d="M256.7,40.8a12.7,12.7,0,0,0,6.3,1.8c4.4,0,6.3-2.2,6.3-4.6s-2-4.1-5.9-5.3-6.8-3.7-6.8-6.5,2.9-6.6,8.3-6.6a14.8,14.8,0,0,1,5,1,22.6,22.6,0,0,1,.1,2.6,9.8,9.8,0,0,0-5.6-1.6c-3.4,0-5.3,2-5.3,4.3s2.2,3.7,5.9,4.9,6.8,3.4,6.8,7-3.3,6.9-9,6.9a14.4,14.4,0,0,1-6.1-1.3V40.8" style="fill:#fff"/><path d="M110,33.6c-4.5,0-6.4,1.8-6.4,3.4a2.8,2.8,0,0,0,3.1,2.9c2.2,0,4.9-1.9,4.9-6.3Zm1.5-4.9c0-3.7-1.5-4.2-4.6-4.2a16.8,16.8,0,0,0-4,.7l-3.1,1-.6-4.9a21.9,21.9,0,0,1,8.7-1.7c6.6,0,9.9,1.9,9.9,9,0,4-.1,7.4-.2,10.8l4.4.5v3.9l-4.3.4h-5.5V42.7a12.7,12.7,0,0,1,.2-2.5c-1.3,3.3-4.9,4.5-7.2,4.5-5.5,0-7.6-3.2-7.6-7s3.4-6.1,5.3-6.7a20.7,20.7,0,0,1,8.6-1.6Z" style="fill:#fff"/></svg>